<?xml version="1.0" encoding="UTF-8" standalone="no"?>
<svg
   xmlns:dc="http://purl.org/dc/elements/1.1/"
   xmlns:cc="http://creativecommons.org/ns#"
   xmlns:rdf="http://www.w3.org/1999/02/22-rdf-syntax-ns#"
   xmlns:svg="http://www.w3.org/2000/svg"
   xmlns="http://www.w3.org/2000/svg"
   version="1.1"
   id="svg2"
   viewBox="0 0 412.39845 212.39985"
   height="59.943958mm"
   width="116.38801mm">
  <defs
     id="defs4" />
  <metadata
     id="metadata7">
    <rdf:RDF>
      <cc:Work
         rdf:about="">
        <dc:format>image/svg+xml</dc:format>
        <dc:type
           rdf:resource="http://purl.org/dc/dcmitype/StillImage" />
        <dc:title></dc:title>
      </cc:Work>
    </rdf:RDF>
  </metadata>
  <g
     transform="translate(-112.73148,-187.64277)"
     id="layer1">
    <path
       id="path4138"
       d="m 318.93071,193.8427 -200,100 200,100 200,-100 z"
       style="fill:#fafafa;fill-opacity:1;fill-rule:evenodd;stroke:#fafafa;stroke-width:12.39999962;stroke-linecap:round;stroke-linejoin:round;stroke-miterlimit:4;stroke-dasharray:none;stroke-opacity:1;opacity:0.8" />
    <g
       transform="matrix(0.11802657,0,0,0.11802657,269.75126,226.87117)"
       id="g5152">
      <rect
         style="fill:#d21f43"
         x="476.79999"
         y="0.30000001"
         class="st0"
         width="291.10001"
         height="153.89999"
         id="rect5154" />
      <line
         style="fill:none;stroke:#000000;stroke-miterlimit:10"
         class="st1"
         x1="99.300003"
         y1="154.2"
         x2="767.90002"
         y2="154.2"
         id="line5156" />
      <g
         id="g5158">
        <path
           d="m 127.8,35.5 17.7,0 22.8,86.7 -14.4,0 -5.3,-21.2 -25.4,0 -5.6,21.2 -14.4,0 24.6,-86.7 z m 18.5,54.4 -10,-42.7 -0.2,0 -10.3,42.7 20.5,0 z"
           id="path5160" />
        <path
           d="m 225.9,91.1 0,1.8 c 0,15.7 -6.3,30.9 -26.7,30.9 -21.8,0 -28.6,-14.1 -28.6,-45 0,-30.9 6.8,-45 28.8,-45 24.6,0 26.1,18.2 26.1,27.2 l 0,1.6 -13.8,0 0,-1.5 c 0,-8 -2.4,-17.2 -12.4,-16.9 -10.2,0 -14.8,6.3 -14.8,34.2 0,27.9 4.6,35 14.8,35 11.5,0 12.9,-12.9 12.9,-20.9 l 0,-1.5 13.7,0 z"
           id="path5162" />
        <path
           d="m 287.1,91.1 0,1.8 c 0,15.7 -6.3,30.9 -26.7,30.9 -21.8,0 -28.6,-14.1 -28.6,-45 0,-30.9 6.8,-45 28.8,-45 24.6,0 26.1,18.2 26.1,27.2 l 0,1.6 -13.8,0 0,-1.5 c 0,-8 -2.4,-17.2 -12.4,-16.9 -10.2,0 -14.8,6.3 -14.8,34.2 0,27.9 4.6,35 14.8,35 11.5,0 12.9,-12.9 12.9,-20.9 l 0,-1.5 13.7,0 z"
           id="path5164" />
        <path
           d="m 294.9,35.5 46.8,0 0,11.7 -33,0 0,24 31.1,0 0,11.7 -31.1,0 0,27.7 34,0 0,11.7 -47.8,0 0,-86.8 z"
           id="path5166" />
        <path
           d="m 362.2,95.4 0,2.2 c 0,10.6 4.6,15.9 14.2,15.9 8.7,0 13.1,-6.2 13.1,-12.6 0,-9.1 -4.6,-13.1 -12.4,-15.4 l -9.5,-3.3 C 355,77.3 349.5,70.8 349.5,58.4 c 0,-15.8 10.7,-24.5 26.9,-24.5 22.2,0 24.5,13.8 24.5,22.8 l 0,1.9 -13.8,0 0,-1.8 c 0,-7.9 -3.5,-12.5 -12.1,-12.5 -5.9,0 -11.7,3.3 -11.7,12.5 0,7.4 3.8,11.2 13,14.7 l 9.3,3.4 c 12.3,4.4 17.6,11 17.6,22.9 0,18.4 -11.2,26.1 -28.6,26.1 -21.5,0 -26.3,-14.3 -26.3,-26.5 l 0,-2.1 13.9,0 z"
           id="path5168" />
        <path
           d="m 423.3,95.4 0,2.2 c 0,10.6 4.6,15.9 14.2,15.9 8.7,0 13.1,-6.2 13.1,-12.6 0,-9.1 -4.6,-13.1 -12.4,-15.4 l -9.5,-3.3 c -12.6,-4.9 -18.1,-11.4 -18.1,-23.8 0,-15.8 10.7,-24.5 26.9,-24.5 22.2,0 24.5,13.8 24.5,22.8 l 0,1.9 -13.8,0 0,-1.8 c 0,-7.9 -3.5,-12.5 -12.1,-12.5 -5.9,0 -11.7,3.3 -11.7,12.5 0,7.4 3.8,11.2 13,14.7 l 9.3,3.4 c 12.3,4.4 17.6,11 17.6,22.9 0,18.4 -11.2,26.1 -28.6,26.1 -21.5,0 -26.3,-14.3 -26.3,-26.5 l 0,-2.1 13.9,0 z"
           id="path5170" />
        <path
           style="fill:#ffffff"
           class="st2"
           d="m 554.4,91.1 0,1.8 c 0,15.7 -6.3,30.9 -26.7,30.9 -21.8,0 -28.6,-14.1 -28.6,-45 0,-30.9 6.8,-45 28.8,-45 24.6,0 26.1,18.2 26.1,27.2 l 0,1.6 -13.8,0 0,-1.5 c 0,-8 -2.4,-17.2 -12.4,-16.9 -10.2,0 -14.8,6.3 -14.8,34.2 0,27.9 4.6,35 14.8,35 11.5,0 12.9,-12.9 12.9,-20.9 l 0,-1.5 13.7,0 z"
           id="path5172" />
        <path
           style="fill:#ffffff"
           class="st2"
           d="m 560.2,78.9 c 0,-30.9 8.7,-45 28.6,-45 19.9,0 28.6,14.1 28.6,45 0,30.9 -8.7,45 -28.6,45 -19.9,0 -28.6,-14.1 -28.6,-45 z m 43.5,-0.4 c 0,-29.1 -6.6,-34.2 -14.8,-34.2 -8.2,0 -14.8,5.1 -14.8,34.2 0,29.9 6.6,35 14.8,35 8.2,0 14.8,-5.1 14.8,-35 z"
           id="path5174" />
        <path
           style="fill:#ffffff"
           class="st2"
           d="m 628,35.5 24.6,0 c 27.2,0 30.6,17.7 30.6,43.3 0,25.6 -3.4,43.3 -30.6,43.3 l -24.6,0 0,-86.6 z m 13.8,76.3 11.4,0 c 11.4,0 16.1,-7.5 16.1,-32.9 0,-24.4 -4.1,-32.9 -16.1,-32.9 l -11.4,0 0,65.8 z"
           id="path5176" />
        <path
           style="fill:#ffffff"
           class="st2"
           d="m 693.6,35.5 46.8,0 0,11.7 -33,0 0,24 31.1,0 0,11.7 -31.1,0 0,27.7 34,0 0,11.7 -47.8,0 0,-86.8 z"
           id="path5178" />
      </g>
      <g
         id="g5180">
        <path
           style="fill:#d21f43"
           class="st0"
           d="M 0,78.3 65.7,49 l 0,11.2 -52.5,23 52.5,23 0,11.2 L 0,87.9 0,78.3 Z"
           id="path5182" />
      </g>
      <g
         id="g5184">
        <path
           style="fill:#d21f43"
           class="st0"
           d="m 853,87.9 -65.7,29.3 0,-11.2 52.5,-23 -52.5,-23 0,-11.1 65.7,29.4 0,9.6 z"
           id="path5186" />
      </g>
      <g
         id="g5188">
        <path
           d="m 123.8,189.2 c 0,-2.5 -0.6,-4.4 -1.7,-5.8 -1.2,-1.4 -3,-2.1 -5.5,-2.1 -1.2,0 -2.3,0.2 -3.3,0.6 -0.9,0.4 -1.7,0.9 -2.4,1.5 -0.6,0.7 -1.1,1.4 -1.5,2.3 -0.3,0.9 -0.5,1.8 -0.5,2.8 0,2 0.5,3.5 1.4,4.6 1,1.1 2.2,2 3.6,2.6 1.4,0.7 3,1.2 4.7,1.7 1.7,0.5 3.3,1.1 4.7,1.9 1.4,0.8 2.6,1.8 3.6,3.2 1,1.3 1.4,3.2 1.4,5.5 0,2 -0.3,3.7 -0.9,5.1 -0.6,1.5 -1.4,2.7 -2.5,3.7 -1.1,1 -2.3,1.7 -3.8,2.2 -1.5,0.5 -3.1,0.7 -5,0.7 -3.8,0 -6.7,-1 -8.7,-3 -2,-2 -3,-5 -3,-8.9 l 0,-1.2 3.6,0 0,1.5 c 0,2.6 0.7,4.7 2,6.2 1.3,1.6 3.3,2.3 6,2.3 2.6,0 4.6,-0.7 6.2,-2 1.6,-1.3 2.4,-3.4 2.4,-6.2 0,-1.5 -0.3,-2.7 -0.8,-3.7 -0.6,-1 -1.3,-1.8 -2.2,-2.4 -0.9,-0.6 -1.9,-1.2 -3.1,-1.6 -1.2,-0.4 -2.4,-0.8 -3.6,-1.2 -1.2,-0.4 -2.4,-0.8 -3.6,-1.4 -1.2,-0.5 -2.2,-1.2 -3.1,-1.9 -0.9,-0.8 -1.6,-1.8 -2.2,-3 -0.6,-1.2 -0.8,-2.7 -0.8,-4.6 0,-1.6 0.3,-3 0.8,-4.3 0.5,-1.3 1.2,-2.4 2.2,-3.3 0.9,-0.9 2.1,-1.6 3.5,-2.2 1.4,-0.5 2.9,-0.8 4.7,-0.8 3.8,0 6.5,0.9 8.3,2.8 1.8,1.9 2.6,4.6 2.6,8.2 l -3.5,0 z"
           id="path5190" />
        <path
           d="m 252.1,205.4 c -0.3,4.6 -1.4,8.2 -3.4,10.6 -2,2.5 -4.9,3.7 -8.5,3.7 -4.1,0 -7.3,-1.7 -9.5,-5 -2.2,-3.3 -3.3,-8.6 -3.3,-15.8 0,-7.2 1.1,-12.5 3.3,-15.8 2.2,-3.3 5.4,-5 9.5,-5 2,0 3.8,0.3 5.2,1 1.5,0.7 2.7,1.6 3.6,2.7 0.9,1.1 1.6,2.4 2.1,3.9 0.4,1.5 0.6,3.1 0.6,4.7 l -3.6,0 c 0,-2.7 -0.7,-5 -2,-6.7 -1.4,-1.7 -3.3,-2.6 -5.9,-2.6 -1.4,0 -2.7,0.3 -3.9,0.9 -1.1,0.6 -2.1,1.6 -2.9,3 -0.8,1.4 -1.4,3.2 -1.8,5.5 -0.4,2.3 -0.6,5 -0.6,8.3 0,3.3 0.2,6 0.6,8.3 0.4,2.3 1,4.1 1.8,5.5 0.8,1.4 1.8,2.4 2.9,3 1.1,0.6 2.4,0.9 3.9,0.9 2.6,0 4.5,-1 5.9,-3 1.4,-2 2.2,-4.8 2.4,-8.2 l 3.6,0 z"
           id="path5192" />
        <path
           d="m 370.8,199 -15.7,0 0,20 -3.6,0 0,-40.2 3.6,0 0,17.2 15.7,0 0,-17.1 3.6,0 0,40.2 -3.6,0 0,-20.1 z"
           id="path5194" />
        <path
           d="m 474.9,199 c 0,-7.2 1.1,-12.5 3.3,-15.8 2.2,-3.3 5.4,-5 9.5,-5 4.1,0 7.3,1.7 9.5,5 2.2,3.3 3.3,8.6 3.3,15.8 0,7.2 -1.1,12.5 -3.3,15.8 -2.2,3.3 -5.4,5 -9.5,5 -4.1,0 -7.3,-1.7 -9.5,-5 -2.2,-3.4 -3.3,-8.6 -3.3,-15.8 z m 3.6,0 c 0,3.3 0.2,6 0.6,8.3 0.4,2.3 1,4.1 1.8,5.5 0.8,1.4 1.8,2.4 2.9,3 1.1,0.6 2.4,0.9 3.9,0.9 1.4,0 2.7,-0.3 3.9,-0.9 1.1,-0.6 2.1,-1.6 2.9,-3 0.8,-1.4 1.4,-3.2 1.8,-5.5 0.4,-2.3 0.6,-5 0.6,-8.3 0,-3.3 -0.2,-6 -0.6,-8.3 -0.4,-2.3 -1,-4.1 -1.8,-5.5 -0.8,-1.4 -1.8,-2.4 -2.9,-3 -1.1,-0.6 -2.4,-0.9 -3.9,-0.9 -1.4,0 -2.7,0.3 -3.9,0.9 -1.1,0.6 -2.1,1.6 -2.9,3 -0.8,1.4 -1.4,3.2 -1.8,5.5 -0.4,2.3 -0.6,5 -0.6,8.3 z"
           id="path5196" />
        <path
           d="m 600.7,199 c 0,-7.2 1.1,-12.5 3.3,-15.8 2.2,-3.3 5.4,-5 9.5,-5 4.1,0 7.3,1.7 9.5,5 2.2,3.3 3.3,8.6 3.3,15.8 0,7.2 -1.1,12.5 -3.3,15.8 -2.2,3.3 -5.4,5 -9.5,5 -4.1,0 -7.3,-1.7 -9.5,-5 -2.2,-3.4 -3.3,-8.6 -3.3,-15.8 z m 3.6,0 c 0,3.3 0.2,6 0.6,8.3 0.4,2.3 1,4.1 1.8,5.5 0.8,1.4 1.8,2.4 2.9,3 1.1,0.6 2.4,0.9 3.9,0.9 1.4,0 2.7,-0.3 3.9,-0.9 1.1,-0.6 2.1,-1.6 2.9,-3 0.8,-1.4 1.4,-3.2 1.8,-5.5 0.4,-2.3 0.6,-5 0.6,-8.3 0,-3.3 -0.2,-6 -0.6,-8.3 -0.4,-2.3 -1,-4.1 -1.8,-5.5 -0.8,-1.4 -1.8,-2.4 -2.9,-3 -1.1,-0.6 -2.4,-0.9 -3.9,-0.9 -1.4,0 -2.7,0.3 -3.9,0.9 -1.1,0.6 -2.1,1.6 -2.9,3 -0.8,1.4 -1.4,3.2 -1.8,5.5 -0.4,2.3 -0.6,5 -0.6,8.3 z"
           id="path5198" />
        <path
           d="m 726.9,178.9 3.6,0 0,37.1 16.7,0 0,3 -20.3,0 0,-40.1 z"
           id="path5200" />
      </g>
    </g>
  </g>
  <style
     type="text/css"
     id="style5150">
	.st0{fill:#D21F43;}
	.st1{fill:none;stroke:#000000;stroke-miterlimit:10;}
	.st2{fill:#FFFFFF;}
</style>
</svg>
